<svg width="72" height="72" viewBox="0 0 72 72" fill="none" xmlns="http://www.w3.org/2000/svg">
<path d="M32.189 11.2359L7.28434 56.6859C5.70934 59.5266 7.80465 63 11.0953 63H60.9187C64.1953 63 66.2906 59.5266 64.7296 56.6859L39.8109 11.2359C38.1656 8.25469 33.8343 8.25469 32.189 11.2359ZM38.475 30.0938L37.9687 47.25H34.0312L33.525 30.0938H38.475ZM36 56.5875C34.4953 56.5875 33.314 55.4484 33.314 54C33.314 52.5516 34.4953 51.4125 36 51.4125C37.5046 51.4125 38.6859 52.5516 38.6859 54C38.6859 55.4484 37.5046 56.5875 36 56.5875Z" fill="black"/>
</svg>
