<svg width="41" height="41" viewBox="0 0 41 41" fill="none" xmlns="http://www.w3.org/2000/svg">
<path d="M36.0686 22.55C36.1731 21.9355 36.1731 21.2177 36.1731 20.5C36.1731 19.7823 36.0686 19.1677 36.0686 18.45L40.4708 15.0677C40.8907 14.7604 40.995 14.248 40.6807 13.7354L36.4873 6.66243C36.2774 6.25204 35.6488 6.04792 35.229 6.25204L29.9872 8.30215C28.9387 7.48234 27.6815 6.76454 26.4234 6.25204L25.6893 0.819807C25.5849 0.410396 25.1651 0 24.6409 0H16.2539C15.7298 0 15.3101 0.410396 15.2056 0.819807L14.3671 6.25204C13.1088 6.76454 11.956 7.48224 10.8022 8.30215L5.56038 6.25204C5.03616 6.04792 4.51194 6.25204 4.30212 6.66243L0.108644 13.7355C-0.100197 14.1448 0.00407519 14.7604 0.31847 15.0678L4.82653 18.45C4.82653 19.1677 4.72206 19.7823 4.72206 20.5C4.72206 21.2177 4.82653 21.8323 4.82653 22.55L0.424221 25.9323C0.00437062 26.2396 -0.0999016 26.752 0.214296 27.2646L4.40777 34.3376C4.61769 34.748 5.24628 34.9521 5.66604 34.748L10.908 32.6979C11.9563 33.5177 13.2136 34.2355 14.4717 34.748L15.3103 40.1802C15.4156 40.6927 15.8344 41 16.3586 41H24.7456C25.2698 41 25.6895 40.5896 25.794 40.1802L26.6335 34.748C27.8908 34.2355 29.0446 33.5178 30.1973 32.6979L35.4392 34.748C35.9633 34.9521 36.4875 34.748 36.6975 34.3376L40.8909 27.2645C41.1008 26.8552 40.9954 26.2396 40.681 25.9322L36.0686 22.55ZM20.4475 27.675C16.3585 27.675 13.109 24.498 13.109 20.5C13.109 16.502 16.3585 13.325 20.4475 13.325C24.5365 13.325 27.7861 16.502 27.7861 20.5C27.7861 24.498 24.5365 27.675 20.4475 27.675Z" fill="#EAE5E5"/>
</svg>
