<svg width="108" height="91" viewBox="0 0 108 91" fill="none" xmlns="http://www.w3.org/2000/svg">
<path fill-rule="evenodd" clip-rule="evenodd" d="M79.0984 78.2152H67.7726C66.8115 78.2152 66.0322 77.4359 66.0322 76.4748C66.0322 75.5137 66.8115 74.7344 67.7726 74.7344H79.0984C93.6973 74.7344 102.399 62.1617 102.399 50.0047C102.399 36.367 91.1516 25.275 77.358 25.275C76.8644 25.275 76.3449 25.301 75.8514 25.3529C75.098 25.4309 74.2928 24.9633 74.033 24.21C70.0586 12.9881 59.2783 5.42891 47.2512 5.42891C31.5873 5.42891 18.8588 18.0016 18.8588 33.4576C18.8588 34.7564 18.9627 36.0812 19.1965 37.51C19.3264 38.3672 18.8328 39.1725 18.0275 39.4322C10.5203 41.874 5.45488 48.7838 5.45488 56.6027C5.45488 66.5777 13.6895 74.7084 23.8203 74.7084H43.5625C44.5236 74.7084 45.3029 75.4877 45.3029 76.4488C45.3029 77.41 44.5236 78.1893 43.5625 78.1893H23.8203C11.7932 78.1893 2 68.5 2 56.6287C2 47.7967 7.40313 39.9518 15.5857 36.6787C15.4559 35.5877 15.4039 34.5486 15.4039 33.4836C15.4039 16.1312 29.691 2 47.2771 2C60.3433 2 72.0588 9.92285 76.8644 21.8461C77.0463 21.8461 77.2281 21.8461 77.4099 21.8461C93.1258 21.8461 105.932 34.4967 105.932 50.0307C105.88 63.8762 95.8793 78.2152 79.0984 78.2152ZM40.5752 63.8502C39.8998 63.1748 39.8998 62.0838 40.5752 61.4084L54.4207 47.5629C54.5766 47.407 54.7584 47.2771 54.9922 47.1992C55.4078 47.0174 55.9014 47.0174 56.317 47.1992C56.5248 47.2771 56.7326 47.407 56.8885 47.5629L70.734 61.4084C71.4094 62.0838 71.4094 63.1748 70.734 63.8502C70.3963 64.1879 69.9547 64.3697 69.5131 64.3697C69.0715 64.3697 68.6299 64.1879 68.2922 63.8502L57.382 52.94V86.8654C57.382 87.8266 56.6027 88.6059 55.6416 88.6059C54.6805 88.6059 53.9012 87.8266 53.9012 86.8654V52.94L42.991 63.8502C42.3416 64.5256 41.2506 64.5256 40.5752 63.8502Z" fill="#1B1B1B" stroke="black" stroke-width="3"/>
</svg>
